PathFileType	4	(X/Y/Z)	./resultDataOpenSim/trcMotMarkerGrf/sub10/qtm-05-02.trc
DataRate	CameraRate	NumFrames	NumMarkers	Units	OrigDataRate	OrigDataStartFrame	OrigNumFrames
250.000000	250.000000	12	24	m	250.000000	398	530
Frame#	Time	L.Toe.Tip			R.Toe.Tip			L.Ankle.Lat			R.Ankle.Lat			L.Ankle.Med			R.Ankle.Med			L.Heel			R.Heel			L.Knee.Lat			R.Knee.Lat			L.Knee.Med			R.Knee.Med			L.Thigh.Upper			R.Thigh.Upper			L.ASIS			R.ASIS			V.Sacral			L.Acromium			R.Acromium			C7			L.Elbow			R.Elbow			L.Wrist.Lat			R.Wrist.Lat
		X1	Y1	Z1	X2	Y2	Z2	X3	Y3	Z3	X4	Y4	Z4	X5	Y5	Z5	X6	Y6	Z6	X7	Y7	Z7	X8	Y8	Z8	X9	Y9	Z9	X10	Y10	Z10	X11	Y11	Z11	X12	Y12	Z12	X13	Y13	Z13	X14	Y14	Z14	X15	Y15	Z15	X16	Y16	Z16	X17	Y17	Z17	X18	Y18	Z18	X19	Y19	Z19	X20	Y20	Z20	X21	Y21	Z21	X22	Y22	Z22	X23	Y23	Z23	X24	Y24	Z24

398	1.588	0.68300429	0.1010354	-0.10004176	0.89681594	0.0391945	0.057754293	0.63963545	0.23190809	-0.12316786	0.75672903	0.052536433	0.10625985	0.66629954	0.23453943	-0.043565243	0.77251111	0.082129566	0.023249485	0.58135203	0.26322704	-0.073565755	0.70307189	0.029686842	0.063267247	0.91835025	0.48428262	-0.14247042	0.82325399	0.45012915	0.14420112	0.93939363	0.45057115	-0.022218493	0.82288584	0.45821153	0.016083589	0.79189114	0.84188673	-0.1660894	0.79341187	0.86573453	0.21340524	0.84346207	0.9552609	-0.097565576	0.85872295	0.95731639	0.14154818	0.65284596	0.96922015	0.026435095	0.83304286	1.4359572	-0.10447681	0.78335998	1.4287462	0.20786247	0.731607	1.4559422	0.037037813	0.74939237	1.1101223	-0.205464	0.65625381	1.098662	0.29793521	0.88494801	0.90602209	-0.18086166	0.86748007	0.99769017	0.39070706
399	1.592	0.6980917	0.099721034	-0.10069143	0.89685132	0.039183325	0.057782922	0.65178185	0.22938786	-0.12375188	0.7566764	0.05262045	0.10631102	0.67911481	0.23237519	-0.044163045	0.77261591	0.082260833	0.023319169	0.59274898	0.25941474	-0.074335022	0.70294153	0.029813181	0.063247778	0.9267599	0.4863443	-0.1424195	0.82397172	0.45017453	0.14466296	0.94727068	0.45291023	-0.022405096	0.82406988	0.45800603	0.016406612	0.79864701	0.84351072	-0.1658853	0.79729563	0.86596537	0.21332899	0.84897929	0.95677308	-0.097240048	0.86332766	0.95777483	0.14166892	0.65824061	0.96981267	0.025644401	0.83638921	1.436849	-0.10450578	0.7865303	1.4299057	0.20792528	0.73516081	1.4566924	0.037030578	0.75168932	1.1117052	-0.20600223	0.66258268	1.0989683	0.30020348	0.8856766	0.90620512	-0.18459574	0.87607501	1.0009108	0.39047023
400	1.596	0.71350845	0.09830182	-0.10137577	0.89688519	0.039159062	0.057805308	0.66402961	0.22669541	-0.1243375	0.75665421	0.052695947	0.1063409	0.69122358	0.230144	-0.044750818	0.77280242	0.082390294	0.02334935	0.60414534	0.25540676	-0.075071553	0.70304956	0.02994226	0.063117853	0.93506235	0.48829204	-0.14234336	0.82480878	0.45019136	0.14507996	0.95428591	0.45518544	-0.02291187	0.82521696	0.45785387	0.016623601	0.80531128	0.84498493	-0.16575775	0.80111489	0.86610703	0.2132558	0.85431004	0.95824156	-0.096914513	0.86792188	0.95815785	0.14180367	0.66344789	0.9703925	0.02495351	0.83973432	1.4376594	-0.10454151	0.78969904	1.4309911	0.20797732	0.73872889	1.4573398	0.037017334	0.75400069	1.113201	-0.20646495	0.66913998	1.0992246	0.30231483	0.88641644	0.90637126	-0.18832278	0.88468567	1.004113	0.39023407
401	1.6	0.72908125	0.096751212	-0.10202842	0.89691633	0.039118576	0.057816658	0.67639396	0.22382513	-0.12493417	0.75676933	0.05272647	0.1062829	0.70290526	0.22781497	-0.045351337	0.77304697	0.082489523	0.023337948	0.61558001	0.251189	-0.075784414	0.70335838	0.030118667	0.06292205	0.94325879	0.49011087	-0.14225213	0.82575653	0.45018439	0.14545252	0.96150579	0.45742243	-0.023474552	0.82627932	0.4578256	0.01669351	0.81166034	0.84638797	-0.16604229	0.80498509	0.86620597	0.21316682	0.85955421	0.95964946	-0.096592204	0.87250491	0.95847156	0.14195624	0.66852478	0.9709472	0.024338292	0.84308344	1.4383938	-0.10458514	0.79288013	1.4320017	0.20802712	0.74231341	1.4579115	0.036997513	0.75633344	1.1146069	-0.20686326	0.67568209	1.099378	0.30418482	0.88713613	0.90652254	-0.19203223	0.89328112	1.0072836	0.38998466
402	1.604	0.7447001	0.095121703	-0.10259761	0.89695152	0.039072706	0.057816909	0.68887529	0.22078101	-0.12553853	0.75694814	0.052743138	0.10617845	0.71461842	0.22534416	-0.045940484	0.77323254	0.082564299	0.023323643	0.62717375	0.24674415	-0.076538531	0.70368311	0.030346633	0.062742243	0.95136156	0.49180822	-0.14214254	0.82678817	0.45015991	0.14579158	0.97093181	0.4596985	-0.02345245	0.82730297	0.45791248	0.016681436	0.81773748	0.84774828	-0.16665219	0.80891878	0.86625872	0.21305002	0.86486282	0.960969	-0.096272746	0.87707248	0.95871785	0.14212666	0.67354034	0.97146765	0.023740292	0.84644021	1.4390548	-0.10463852	0.79607483	1.4329388	0.20807575	0.74590193	1.4584176	0.036966789	0.75868059	1.1159235	-0.20723128	0.68206819	1.0993739	0.30582152	0.88781029	0.90666544	-0.19571756	0.9018116	1.010395	0.38968876
403	1.608	0.76045183	0.093507347	-0.10309825	0.89700052	0.039039029	0.057810217	0.70146776	0.21757533	-0.12613854	0.75708421	0.052786904	0.10609031	0.72648576	0.22273749	-0.046472201	0.77329525	0.082646171	0.023333744	0.6389969	0.24207471	-0.077368482	0.70389249	0.030592514	0.062607432	0.95939113	0.49340966	-0.14199977	0.82785984	0.45011698	0.14610891	0.98355102	0.46204454	-0.02240761	0.82843474	0.45802296	0.016738956	0.82378427	0.84904476	-0.16722707	0.81289262	0.86623453	0.21290286	0.87030731	0.96218393	-0.095957503	0.88161923	0.95889716	0.14231308	0.67851728	0.97194903	0.023104069	0.84980205	1.4396412	-0.10469791	0.79927495	1.4338006	0.20811803	0.74948584	1.4588455	0.036920243	0.76103207	1.1171529	-0.20760938	0.68829381	1.0992214	0.30727288	0.88845909	0.90679875	-0.19938041	0.91024982	1.0134288	0.38932846
404	1.612	0.77645486	0.091964918	-0.10356109	0.89706442	0.03902227	0.057801223	0.71417434	0.21422293	-0.12672843	0.757167	0.052861481	0.10602508	0.73830167	0.22003845	-0.046914602	0.77330922	0.082748864	0.023350842	0.65099104	0.23720017	-0.078224987	0.70397836	0.030826834	0.062493884	0.96735135	0.49493252	-0.14181775	0.82896976	0.45005456	0.14640601	0.99709663	0.46423702	-0.020826882	0.82981538	0.45803006	0.016964203	0.83001703	0.85025883	-0.16751007	0.81686324	0.86611092	0.21273294	0.87586881	0.96329784	-0.095652766	0.88614332	0.95901326	0.14251714	0.68345027	0.9723825	0.022403062	0.8531747	1.4401487	-0.10475753	0.80247752	1.4345816	0.20815093	0.75307057	1.459182	0.036857449	0.76339201	1.1183031	-0.20801959	0.69437911	1.0989958	0.3085372	0.88913463	0.90690536	-0.20300677	0.91861399	1.0163916	0.38892021
405	1.616	0.79269018	0.090477855	-0.10399043	0.89713566	0.039013171	0.057793744	0.72700423	0.210737	-0.12731047	0.75723297	0.05295103	0.10596201	0.74999578	0.21725592	-0.047283803	0.7733579	0.082860169	0.023347441	0.66307839	0.2321354	-0.07904671	0.70399893	0.031047837	0.062376586	0.97522912	0.49637407	-0.14160224	0.83017908	0.4499829	0.14667206	1.0076643	0.46591672	-0.01974945	0.83148502	0.45783554	0.017349367	0.83648752	0.85139439	-0.1675013	0.82075217	0.86589947	0.21255985	0.88152094	0.96432251	-0.095366929	0.89064468	0.95907256	0.14274211	0.68834259	0.97275108	0.021647681	0.85657502	1.4405728	-0.1048181	0.80569123	1.435278	0.20817234	0.75666816	1.4594305	0.036782398	0.76576475	1.1193917	-0.20846381	0.70036365	1.0987681	0.30960257	0.88989977	0.90697312	-0.20658116	0.92694967	1.0193021	0.38849059
406	1.62	0.80903055	0.088978885	-0.10437874	0.89721003	0.039002507	0.05778975	0.73996399	0.20712283	-0.12788334	0.75730245	0.053043242	0.10589128	0.76180139	0.21434914	-0.047634965	0.77343112	0.08296766	0.023319083	0.67525728	0.22688559	-0.0798293	0.70402214	0.031265165	0.062274494	0.98301992	0.49772438	-0.14135685	0.83150932	0.44990944	0.14689952	1.0142149	0.46704058	-0.019580402	0.83335785	0.45744297	0.01782954	0.84297317	0.8524559	-0.16744764	0.82452592	0.86565623	0.21240487	0.8872406	0.9652669	-0.095097107	0.89512172	0.95908163	0.14298905	0.69321255	0.97303879	0.020873888	0.86000926	1.4409143	-0.10488872	0.80892552	1.4358862	0.20817978	0.76028532	1.4596074	0.03669925	0.76813772	1.1204384	-0.20892506	0.70635145	1.0985594	0.3105311	0.89079572	0.90701369	-0.21012193	0.93529432	1.0221721	0.38804743
407	1.624	0.82536096	0.087407802	-0.10472348	0.89729456	0.038983377	0.057784344	0.75305289	0.20337816	-0.12843764	0.75735496	0.05314256	0.10582774	0.7739443	0.21128189	-0.048011697	0.77349274	0.083074081	0.023274668	0.68755904	0.22146266	-0.080598546	0.7041209	0.031479291	0.062264803	0.99072609	0.49897974	-0.14108348	0.83289865	0.449825	0.14709531	1.0191691	0.46793902	-0.019861608	0.83526643	0.45696277	0.018308083	0.84915036	0.85343506	-0.16761117	0.82826078	0.86544346	0.21227211	0.89293997	0.96612906	-0.094819533	0.89957132	0.95904583	0.14325906	0.6980808	0.97324314	0.020123728	0.86346683	1.4411792	-0.10497644	0.81217726	1.4364021	0.2081735	0.76391977	1.4597269	0.036611341	0.77049641	1.1214496	-0.20937495	0.7124881	1.0983616	0.31146196	0.89176991	0.90703963	-0.21364961	0.94366144	1.0250028	0.38758358
408	1.628	0.84165316	0.085757993	-0.10502441	0.89740102	0.038947823	0.057765848	0.76626369	0.19950439	-0.12896505	0.75732572	0.05327438	0.10581045	0.78640341	0.20805162	-0.04841557	0.77356752	0.083191548	0.023223188	0.69999808	0.21589505	-0.081363731	0.70436076	0.031658088	0.062424172	0.99833446	0.50013771	-0.14078925	0.83429104	0.44972004	0.14727286	1.0248287	0.46889924	-0.020074365	0.83705494	0.4565214	0.018667892	0.85501866	0.85432038	-0.16798383	0.83205048	0.86527056	0.21214875	0.89847325	0.96689897	-0.094514764	0.90399053	0.95897034	0.14355637	0.70297166	0.97337852	0.019434429	0.86693973	1.4413715	-0.10507515	0.81544327	1.4368313	0.20815891	0.76756523	1.4597879	0.036523048	0.77285457	1.12241	-0.20979571	0.71886089	1.0981638	0.3125319	0.89269542	0.90704403	-0.21714413	0.95203874	1.0277865	0.38708968
409	1.632	0.85797227	0.084074945	-0.1052763	0.89752676	0.038896111	0.057730321	0.77959346	0.19551596	-0.12946295	0.75716016	0.053461244	0.10587029	0.79905192	0.20467161	-0.048820495	0.77373378	0.083323259	0.023177904	0.71257935	0.21021573	-0.082118004	0.70472774	0.031737526	0.062706529	1.0058248	0.50118585	-0.14048099	0.83568408	0.44959912	0.14743771	1.0315774	0.46996562	-0.020086032	0.83868096	0.45617698	0.018865197	0.86088132	0.85510369	-0.16838112	0.83590383	0.86509358	0.2120225	0.90379225	0.96756938	-0.094189284	0.90837768	0.95886089	0.14388489	0.70791457	0.97346918	0.018839346	0.87043284	1.4414895	-0.10517169	0.8187395	1.4371906	0.20814537	0.77121911	1.4597801	0.036439686	0.77525418	1.1232927	-0.21018719	0.72543118	1.0979508	0.31378168	0.89350948	0.90701563	-0.22056466	0.96038785	1.0305067	0.38655272
